<svg xmlns="http://www.w3.org/2000/svg" viewBox="0 0 24 24" width="24" height="24" role="img" aria-label="OpenAI">
  <rect x="1.5" y="1.5" width="21" height="21" rx="6" fill="#111827" />
  <g fill="none" stroke="#ffffff" stroke-width="1.7" stroke-linecap="round" stroke-linejoin="round">
    <path d="M12 5.1a3.8 3.8 0 0 1 3.3 1.9l2.4 4.1a3.8 3.8 0 0 1 0 3.8"/>
    <path d="M18.3 14.9a3.8 3.8 0 0 1-3.3 1.9h-4.8a3.8 3.8 0 0 1-3.3-1.9"/>
    <path d="M5.7 14.9a3.8 3.8 0 0 1 0-3.8L8.1 7a3.8 3.8 0 0 1 3.3-1.9"/>
  </g>
</svg>
