<svg width="168" height="32" viewBox="0 0 168 32" fill="none" xmlns="http://www.w3.org/2000/svg">
<path d="M155.48 9.1678L156.104 10.8478C156.264 10.3358 156.808 9.8398 157.736 9.3598C158.664 8.8478 159.528 8.5918 160.328 8.5918C163.4 8.5918 165.704 10.1758 167.24 13.3438L161.144 16.5118C160.216 15.1998 159.208 14.5438 158.12 14.5438C157.256 14.5438 156.696 14.9758 156.44 15.8398V30.9598H149.384V9.1678H155.48Z" fill="white"/>
<path d="M143.295 30.9598H137.487L137.007 28.9918C135.407 30.6878 133.375 31.5358 130.911 31.5358C126.079 31.5358 123.663 29.1518 123.663 24.3838C123.663 22.0478 124.655 20.2398 126.639 18.9598C128.783 17.5838 131.983 16.8958 136.239 16.8958H136.287V16.8478C136.287 15.6638 136.079 14.8958 135.663 14.5438C135.279 14.1598 134.447 13.9678 133.167 13.9678C130.927 13.9678 128.943 14.6398 127.215 15.9838C126.543 14.8638 125.855 13.6158 125.151 12.2398C127.039 10.8638 128.719 9.9198 130.191 9.4078C131.695 8.8638 133.423 8.5918 135.375 8.5918C137.839 8.5918 139.775 9.4718 141.183 11.2318C142.591 12.9598 143.295 15.3438 143.295 18.3838V30.9598ZM136.047 21.1198C134.511 21.1198 133.247 21.4078 132.255 21.9838C131.295 22.5598 130.815 23.3118 130.815 24.2398V24.2878C130.911 25.7278 131.503 26.4638 132.591 26.4958H132.687C133.583 26.4958 134.351 26.1918 134.991 25.5838C135.663 24.9438 136.015 24.1918 136.047 23.3278V21.1198Z" fill="white"/>
<path d="M118.897 0V30.96H111.697V3.744L118.897 0Z" fill="white"/>
<path d="M83.853 30.96V4.128L91.053 0V11.712C91.757 10.528 92.797 9.648 94.173 9.072C95.005 8.688 95.933 8.496 96.957 8.496C100.189 8.496 102.685 9.568 104.445 11.712C106.109 13.632 106.941 16.272 106.941 19.632C106.941 23.92 105.725 27.104 103.293 29.184C101.469 30.752 99.165 31.536 96.381 31.536C93.821 31.536 91.773 30.64 90.237 28.848L89.757 30.96H83.853ZM91.053 22.224C91.085 23.504 91.501 24.576 92.301 25.44C93.101 26.272 94.077 26.688 95.229 26.688C97.917 26.688 99.261 24.496 99.261 20.112C99.261 18.096 98.925 16.512 98.253 15.36C97.581 14.208 96.669 13.632 95.517 13.632C93.917 13.632 92.781 14.032 92.109 14.832C91.437 15.632 91.085 17.024 91.053 19.008V22.224Z" fill="white"/>
<path d="M77.7638 30.9598H71.9558L71.4758 28.9918C69.8758 30.6878 67.8438 31.5358 65.3798 31.5358C60.5478 31.5358 58.1318 29.1518 58.1318 24.3838C58.1318 22.0478 59.1238 20.2398 61.1078 18.9598C63.2518 17.5838 66.4518 16.8958 70.7078 16.8958H70.7558V16.8478C70.7558 15.6638 70.5478 14.8958 70.1318 14.5438C69.7478 14.1598 68.9158 13.9678 67.6358 13.9678C65.3958 13.9678 63.4118 14.6398 61.6838 15.9838C61.0118 14.8638 60.3238 13.6158 59.6198 12.2398C61.5078 10.8638 63.1878 9.9198 64.6598 9.4078C66.1638 8.8638 67.8918 8.5918 69.8438 8.5918C72.3078 8.5918 74.2438 9.4718 75.6518 11.2318C77.0598 12.9598 77.7638 15.3438 77.7638 18.3838V30.9598ZM70.5158 21.1198C68.9798 21.1198 67.7158 21.4078 66.7238 21.9838C65.7638 22.5598 65.2838 23.3118 65.2838 24.2398V24.2878C65.3798 25.7278 65.9718 26.4638 67.0598 26.4958H67.1558C68.0518 26.4958 68.8198 26.1918 69.4598 25.5838C70.1318 24.9438 70.4838 24.1918 70.5158 23.3278V21.1198Z" fill="white"/>
<path d="M53.3655 0V30.96H46.1655V3.744L53.3655 0Z" fill="white"/>
<path d="M40.0763 30.9598H34.2683L33.7883 28.9918C32.1883 30.6878 30.1563 31.5358 27.6923 31.5358C22.8603 31.5358 20.4443 29.1518 20.4443 24.3838C20.4443 22.0478 21.4363 20.2398 23.4203 18.9598C25.5643 17.5838 28.7643 16.8958 33.0203 16.8958H33.0683V16.8478C33.0683 15.6638 32.8603 14.8958 32.4443 14.5438C32.0603 14.1598 31.2283 13.9678 29.9483 13.9678C27.7083 13.9678 25.7243 14.6398 23.9963 15.9838C23.3243 14.8638 22.6363 13.6158 21.9323 12.2398C23.8203 10.8638 25.5003 9.9198 26.9723 9.4078C28.4763 8.8638 30.2043 8.5918 32.1563 8.5918C34.6203 8.5918 36.5563 9.4718 37.9643 11.2318C39.3723 12.9598 40.0763 15.3438 40.0763 18.3838V30.9598ZM32.8283 21.1198C31.2923 21.1198 30.0283 21.4078 29.0363 21.9838C28.0763 22.5598 27.5963 23.3118 27.5963 24.2398V24.2878C27.6923 25.7278 28.2843 26.4638 29.3723 26.4958H29.4683C30.3643 26.4958 31.1323 26.1918 31.7723 25.5838C32.4443 24.9438 32.7963 24.1918 32.8283 23.3278V21.1198Z" fill="white"/>
<path d="M15.072 25.1044L17.424 28.7044C14.832 30.7844 11.952 31.8244 8.784 31.8244C6.704 31.8244 5.2 31.3284 4.272 30.3364C3.376 29.3124 2.928 27.6484 2.928 25.3444V14.9284H0V9.16837H2.976V5.61637C4.896 4.59237 7.312 3.31237 10.224 1.77637V9.16837H16.224V14.9284H10.176V24.2884C10.176 24.3524 10.16 24.4644 10.128 24.6244C10.128 24.7204 10.128 24.8004 10.128 24.8644C10.128 25.9844 10.512 26.5444 11.28 26.5444C12.112 26.5444 13.376 26.0644 15.072 25.1044Z" fill="white"/>
</svg>
